<mxfile host="app.diagrams.net" modified="2023-12-23T12:03:32.945Z" agent="Mozilla/5.0 (Windows NT 10.0; Win64; x64) AppleWebKit/537.36 (KHTML, like Gecko) Chrome/119.0.0.0 Safari/537.36 Edg/119.0.0.0" etag="yJCed26fhi6aBqwbjaHk" version="22.1.11" type="device">
  <diagram name="Page-1" id="8bgcanyi109yhyMAAwmo">
    <mxGraphModel dx="1235" dy="672" grid="1" gridSize="10" guides="1" tooltips="1" connect="1" arrows="1" fold="1" page="1" pageScale="1" pageWidth="827" pageHeight="1169" math="0" shadow="0">
      <root>
        <mxCell id="0" />
        <mxCell id="1" parent="0" />
        <mxCell id="Josfw-84LB-1IX-VTCJ1-5" value="Computer" style="swimlane;whiteSpace=wrap;html=1;" vertex="1" parent="1">
          <mxGeometry x="80" y="80" width="230" height="330" as="geometry" />
        </mxCell>
        <mxCell id="Josfw-84LB-1IX-VTCJ1-6" value="Leg&lt;br&gt;~calculates servo angles based on input point" style="rounded=1;whiteSpace=wrap;html=1;" vertex="1" parent="Josfw-84LB-1IX-VTCJ1-5">
          <mxGeometry x="15" y="250" width="200" height="60" as="geometry" />
        </mxCell>
        <mxCell id="Josfw-84LB-1IX-VTCJ1-7" value="Hexapod&lt;br&gt;~calculates points for the legs based on control inputs" style="rounded=1;whiteSpace=wrap;html=1;" vertex="1" parent="Josfw-84LB-1IX-VTCJ1-5">
          <mxGeometry x="15" y="180" width="200" height="60" as="geometry" />
        </mxCell>
        <mxCell id="Josfw-84LB-1IX-VTCJ1-8" value="Communication&lt;br&gt;~shares the servo angles with the arduino" style="rounded=1;whiteSpace=wrap;html=1;" vertex="1" parent="Josfw-84LB-1IX-VTCJ1-5">
          <mxGeometry x="15" y="40" width="200" height="60" as="geometry" />
        </mxCell>
        <mxCell id="Josfw-84LB-1IX-VTCJ1-16" value="Input Manager&lt;br&gt;~takes in user input and converts it to control inputs for hexapod" style="rounded=1;whiteSpace=wrap;html=1;" vertex="1" parent="Josfw-84LB-1IX-VTCJ1-5">
          <mxGeometry x="15" y="110" width="200" height="60" as="geometry" />
        </mxCell>
        <mxCell id="Josfw-84LB-1IX-VTCJ1-9" value="Arduino" style="swimlane;whiteSpace=wrap;html=1;" vertex="1" parent="1">
          <mxGeometry x="370" y="80" width="230" height="280" as="geometry" />
        </mxCell>
        <mxCell id="Josfw-84LB-1IX-VTCJ1-4" value="Communication&lt;br&gt;~receives angles for the servos" style="rounded=1;whiteSpace=wrap;html=1;" vertex="1" parent="Josfw-84LB-1IX-VTCJ1-9">
          <mxGeometry x="12" y="40" width="206" height="60" as="geometry" />
        </mxCell>
        <mxCell id="Josfw-84LB-1IX-VTCJ1-14" value="Servo Controller&lt;br&gt;~sets the connected servo angles" style="rounded=1;whiteSpace=wrap;html=1;" vertex="1" parent="Josfw-84LB-1IX-VTCJ1-9">
          <mxGeometry x="12" y="110" width="208" height="60" as="geometry" />
        </mxCell>
        <mxCell id="Josfw-84LB-1IX-VTCJ1-15" value="Initiator&lt;br&gt;~safely initiates all servos without strong instant snapping&lt;br&gt;~establishes a connection to the pc side" style="rounded=1;whiteSpace=wrap;html=1;" vertex="1" parent="Josfw-84LB-1IX-VTCJ1-9">
          <mxGeometry x="12" y="180" width="208" height="80" as="geometry" />
        </mxCell>
        <mxCell id="Josfw-84LB-1IX-VTCJ1-13" value="" style="shape=link;html=1;rounded=0;exitX=1;exitY=0.5;exitDx=0;exitDy=0;entryX=0;entryY=0.5;entryDx=0;entryDy=0;" edge="1" parent="1" source="Josfw-84LB-1IX-VTCJ1-8" target="Josfw-84LB-1IX-VTCJ1-4">
          <mxGeometry width="100" relative="1" as="geometry">
            <mxPoint x="360" y="210" as="sourcePoint" />
            <mxPoint x="460" y="210" as="targetPoint" />
          </mxGeometry>
        </mxCell>
        <mxCell id="Josfw-84LB-1IX-VTCJ1-28" value="" style="shape=link;html=1;rounded=0;exitX=1;exitY=0.5;exitDx=0;exitDy=0;entryX=0;entryY=0.5;entryDx=0;entryDy=0;" edge="1" parent="1" source="Josfw-84LB-1IX-VTCJ1-25" target="Josfw-84LB-1IX-VTCJ1-29">
          <mxGeometry width="100" relative="1" as="geometry">
            <mxPoint x="360" y="560" as="sourcePoint" />
            <mxPoint x="460" y="560" as="targetPoint" />
          </mxGeometry>
        </mxCell>
        <mxCell id="Josfw-84LB-1IX-VTCJ1-29" value="Communication" style="rounded=1;whiteSpace=wrap;html=1;" vertex="1" parent="1">
          <mxGeometry x="400" y="640" width="120" height="60" as="geometry" />
        </mxCell>
        <mxCell id="Josfw-84LB-1IX-VTCJ1-33" value="Servo Controller" style="rounded=1;whiteSpace=wrap;html=1;" vertex="1" parent="1">
          <mxGeometry x="560" y="640" width="120" height="60" as="geometry" />
        </mxCell>
        <mxCell id="Josfw-84LB-1IX-VTCJ1-34" value="" style="endArrow=none;dashed=1;html=1;dashPattern=1 3;strokeWidth=2;rounded=0;exitX=1;exitY=0.5;exitDx=0;exitDy=0;entryX=0;entryY=0.5;entryDx=0;entryDy=0;" edge="1" parent="1" source="Josfw-84LB-1IX-VTCJ1-29" target="Josfw-84LB-1IX-VTCJ1-33">
          <mxGeometry width="50" height="50" relative="1" as="geometry">
            <mxPoint x="560" y="610" as="sourcePoint" />
            <mxPoint x="610" y="560" as="targetPoint" />
          </mxGeometry>
        </mxCell>
        <mxCell id="Josfw-84LB-1IX-VTCJ1-41" style="edgeStyle=orthogonalEdgeStyle;rounded=0;orthogonalLoop=1;jettySize=auto;html=1;exitX=0.5;exitY=1;exitDx=0;exitDy=0;entryX=0.5;entryY=0;entryDx=0;entryDy=0;" edge="1" parent="1" source="Josfw-84LB-1IX-VTCJ1-39" target="Josfw-84LB-1IX-VTCJ1-33">
          <mxGeometry relative="1" as="geometry" />
        </mxCell>
        <mxCell id="Josfw-84LB-1IX-VTCJ1-39" value="Initiator" style="rounded=1;whiteSpace=wrap;html=1;" vertex="1" parent="1">
          <mxGeometry x="560" y="540" width="120" height="60" as="geometry" />
        </mxCell>
        <mxCell id="Josfw-84LB-1IX-VTCJ1-40" value="" style="endArrow=none;dashed=1;html=1;dashPattern=1 3;strokeWidth=2;rounded=0;exitX=0;exitY=0.5;exitDx=0;exitDy=0;entryX=0.5;entryY=0;entryDx=0;entryDy=0;" edge="1" parent="1" source="Josfw-84LB-1IX-VTCJ1-39" target="Josfw-84LB-1IX-VTCJ1-29">
          <mxGeometry width="50" height="50" relative="1" as="geometry">
            <mxPoint x="370" y="540" as="sourcePoint" />
            <mxPoint x="460" y="610" as="targetPoint" />
            <Array as="points">
              <mxPoint x="460" y="570" />
            </Array>
          </mxGeometry>
        </mxCell>
        <mxCell id="Josfw-84LB-1IX-VTCJ1-42" style="edgeStyle=orthogonalEdgeStyle;rounded=0;orthogonalLoop=1;jettySize=auto;html=1;exitX=1;exitY=0.25;exitDx=0;exitDy=0;entryX=1;entryY=0.75;entryDx=0;entryDy=0;" edge="1" parent="1" source="Josfw-84LB-1IX-VTCJ1-33" target="Josfw-84LB-1IX-VTCJ1-33">
          <mxGeometry relative="1" as="geometry">
            <Array as="points">
              <mxPoint x="700" y="655" />
              <mxPoint x="700" y="685" />
            </Array>
          </mxGeometry>
        </mxCell>
        <mxCell id="Josfw-84LB-1IX-VTCJ1-43" value="Computer" style="swimlane;whiteSpace=wrap;html=1;" vertex="1" parent="1">
          <mxGeometry x="80" y="510" width="290" height="300" as="geometry" />
        </mxCell>
        <mxCell id="Josfw-84LB-1IX-VTCJ1-22" value="Input Manager" style="rounded=1;whiteSpace=wrap;html=1;" vertex="1" parent="Josfw-84LB-1IX-VTCJ1-43">
          <mxGeometry x="10" y="30" width="120" height="60" as="geometry" />
        </mxCell>
        <mxCell id="Josfw-84LB-1IX-VTCJ1-18" value="Hexapod" style="rounded=1;whiteSpace=wrap;html=1;" vertex="1" parent="Josfw-84LB-1IX-VTCJ1-43">
          <mxGeometry x="10" y="130" width="120" height="60" as="geometry" />
        </mxCell>
        <mxCell id="Josfw-84LB-1IX-VTCJ1-27" style="edgeStyle=orthogonalEdgeStyle;rounded=0;orthogonalLoop=1;jettySize=auto;html=1;exitX=0.5;exitY=1;exitDx=0;exitDy=0;entryX=0.5;entryY=0;entryDx=0;entryDy=0;" edge="1" parent="Josfw-84LB-1IX-VTCJ1-43" source="Josfw-84LB-1IX-VTCJ1-22" target="Josfw-84LB-1IX-VTCJ1-18">
          <mxGeometry relative="1" as="geometry" />
        </mxCell>
        <mxCell id="Josfw-84LB-1IX-VTCJ1-19" value="6x Leg" style="rounded=1;whiteSpace=wrap;html=1;" vertex="1" parent="Josfw-84LB-1IX-VTCJ1-43">
          <mxGeometry x="10" y="230" width="120" height="60" as="geometry" />
        </mxCell>
        <mxCell id="Josfw-84LB-1IX-VTCJ1-21" style="edgeStyle=orthogonalEdgeStyle;rounded=0;orthogonalLoop=1;jettySize=auto;html=1;exitX=0.75;exitY=0;exitDx=0;exitDy=0;entryX=0.75;entryY=1;entryDx=0;entryDy=0;" edge="1" parent="Josfw-84LB-1IX-VTCJ1-43" source="Josfw-84LB-1IX-VTCJ1-19" target="Josfw-84LB-1IX-VTCJ1-18">
          <mxGeometry relative="1" as="geometry" />
        </mxCell>
        <mxCell id="Josfw-84LB-1IX-VTCJ1-36" style="edgeStyle=orthogonalEdgeStyle;rounded=0;orthogonalLoop=1;jettySize=auto;html=1;exitX=0.5;exitY=1;exitDx=0;exitDy=0;entryX=0.5;entryY=0;entryDx=0;entryDy=0;" edge="1" parent="Josfw-84LB-1IX-VTCJ1-43" source="Josfw-84LB-1IX-VTCJ1-18" target="Josfw-84LB-1IX-VTCJ1-19">
          <mxGeometry relative="1" as="geometry" />
        </mxCell>
        <mxCell id="Josfw-84LB-1IX-VTCJ1-25" value="Communication" style="rounded=1;whiteSpace=wrap;html=1;" vertex="1" parent="Josfw-84LB-1IX-VTCJ1-43">
          <mxGeometry x="160" y="130" width="120" height="60" as="geometry" />
        </mxCell>
        <mxCell id="Josfw-84LB-1IX-VTCJ1-26" value="" style="endArrow=none;dashed=1;html=1;dashPattern=1 3;strokeWidth=2;rounded=0;exitX=1;exitY=0.5;exitDx=0;exitDy=0;entryX=0;entryY=0.5;entryDx=0;entryDy=0;" edge="1" parent="Josfw-84LB-1IX-VTCJ1-43" source="Josfw-84LB-1IX-VTCJ1-18" target="Josfw-84LB-1IX-VTCJ1-25">
          <mxGeometry width="50" height="50" relative="1" as="geometry">
            <mxPoint x="310" y="80" as="sourcePoint" />
            <mxPoint x="360" y="30" as="targetPoint" />
          </mxGeometry>
        </mxCell>
        <mxCell id="Josfw-84LB-1IX-VTCJ1-30" value="" style="endArrow=none;dashed=1;html=1;dashPattern=1 3;strokeWidth=2;rounded=0;exitX=1;exitY=0.5;exitDx=0;exitDy=0;entryX=0.5;entryY=0;entryDx=0;entryDy=0;" edge="1" parent="Josfw-84LB-1IX-VTCJ1-43" source="Josfw-84LB-1IX-VTCJ1-22" target="Josfw-84LB-1IX-VTCJ1-25">
          <mxGeometry width="50" height="50" relative="1" as="geometry">
            <mxPoint x="310" y="260" as="sourcePoint" />
            <mxPoint x="360" y="210" as="targetPoint" />
            <Array as="points">
              <mxPoint x="220" y="60" />
            </Array>
          </mxGeometry>
        </mxCell>
        <mxCell id="Josfw-84LB-1IX-VTCJ1-32" value="only for initiation" style="text;html=1;strokeColor=none;fillColor=none;align=center;verticalAlign=middle;whiteSpace=wrap;rounded=0;" vertex="1" parent="Josfw-84LB-1IX-VTCJ1-43">
          <mxGeometry x="150" y="30" width="60" height="30" as="geometry" />
        </mxCell>
        <mxCell id="Josfw-84LB-1IX-VTCJ1-44" value="Arduino" style="swimlane;whiteSpace=wrap;html=1;" vertex="1" parent="1">
          <mxGeometry x="390" y="510" width="320" height="200" as="geometry" />
        </mxCell>
      </root>
    </mxGraphModel>
  </diagram>
</mxfile>
